<?xml version="1.0" encoding="UTF-8"?>
<svg xmlns="http://www.w3.org/2000/svg" width="1200" height="720" viewBox="0 0 1200 720">
  <defs>
    <style>
      .bg { fill:#ffffff; }
      .frame { fill:none; stroke:#111827; stroke-width:2; rx:24; ry:24; }
      .muted { fill:#6b7280; font-family: Inter, Arial, sans-serif; font-size:14px; }
      .h1 { fill:#111827; font-family: Inter, Arial, sans-serif; font-size:22px; font-weight:700; }
      .h2 { fill:#111827; font-family: Inter, Arial, sans-serif; font-size:16px; font-weight:700; }
      .text { fill:#111827; font-family: Inter, Arial, sans-serif; font-size:14px; }
      .pill { fill:#f3f4f6; stroke:#d1d5db; stroke-width:1; }
      .card { fill:#ffffff; stroke:#e5e7eb; stroke-width:2; }
      .btn { fill:#111827; }
      .btnText { fill:#ffffff; font-family: Inter, Arial, sans-serif; font-size:14px; font-weight:700; }
      .chipText { fill:#111827; font-family: Inter, Arial, sans-serif; font-size:12px; font-weight:600; }
      .icon { fill:#111827; }
      .divider { stroke:#e5e7eb; stroke-width:2; }
      .accent { fill:#111827; }
      .outline { fill:none; stroke:#111827; stroke-width:2; }
    </style>
  </defs>
  <rect class="bg" x="0" y="0" width="1200" height="720"/>
<text class="h1" x="40" y="60" text-anchor="start">Habit Tracker — End‑to‑End User Flow</text>
<text class="muted" x="40" y="88" text-anchor="start">API-first training app (Laravel + Sanctum). Import this SVG into Figma as a flow map.</text>
<rect class="card" x="80" y="140" width="180" height="72" rx="18" ry="18"/>
<text class="h2" x="170" y="184" text-anchor="middle">Start</text>
<rect class="card" x="280" y="140" width="180" height="72" rx="18" ry="18"/>
<text class="h2" x="370" y="184" text-anchor="middle">Sign up / Login</text>
<rect class="card" x="520" y="140" width="180" height="72" rx="18" ry="18"/>
<text class="h2" x="610" y="184" text-anchor="middle">Today checklist</text>
<rect class="card" x="760" y="140" width="180" height="72" rx="18" ry="18"/>
<text class="h2" x="850" y="184" text-anchor="middle">Tap Done / Undo</text>
<rect class="card" x="980" y="140" width="180" height="72" rx="18" ry="18"/>
<text class="h2" x="1070" y="184" text-anchor="middle">Auto log saved</text>
<rect class="card" x="520" y="320" width="180" height="72" rx="18" ry="18"/>
<text class="h2" x="610" y="364" text-anchor="middle">Add habit</text>
<rect class="card" x="760" y="320" width="180" height="72" rx="18" ry="18"/>
<text class="h2" x="850" y="364" text-anchor="middle">Calendar</text>
<rect class="card" x="980" y="320" width="180" height="72" rx="18" ry="18"/>
<text class="h2" x="1070" y="364" text-anchor="middle">Stats</text>
<rect class="card" x="520" y="500" width="180" height="72" rx="18" ry="18"/>
<text class="h2" x="610" y="544" text-anchor="middle">Edit habit</text>
<rect class="card" x="760" y="500" width="180" height="72" rx="18" ry="18"/>
<text class="h2" x="850" y="544" text-anchor="middle">Delete habit</text>
<line x1="260" y1="176" x2="280" y2="176" stroke="#111827" stroke-width="2"/>
<polygon points="280,176 271.33974596215563,181.0 271.33974596215563,171.0" fill="#111827"/>
<line x1="460" y1="176" x2="520" y2="176" stroke="#111827" stroke-width="2"/>
<polygon points="520,176 511.33974596215563,181.0 511.33974596215563,171.0" fill="#111827"/>
<line x1="700" y1="176" x2="760" y2="176" stroke="#111827" stroke-width="2"/>
<polygon points="760,176 751.3397459621556,181.0 751.3397459621556,171.0" fill="#111827"/>
<line x1="940" y1="176" x2="980" y2="176" stroke="#111827" stroke-width="2"/>
<polygon points="980,176 971.3397459621556,181.0 971.3397459621556,171.0" fill="#111827"/>
<line x1="610" y1="212" x2="610" y2="320" stroke="#111827" stroke-width="2"/>
<polygon points="610,320 605.0,311.33974596215563 615.0,311.33974596215563" fill="#111827"/>
<line x1="610" y1="320" x2="520" y2="320" stroke="#111827" stroke-width="2"/>
<polygon points="520,320 528.6602540378444,315.0 528.6602540378444,325.0" fill="#111827"/>
<line x1="700" y1="212" x2="700" y2="320" stroke="#111827" stroke-width="2"/>
<polygon points="700,320 695.0,311.33974596215563 705.0,311.33974596215563" fill="#111827"/>
<line x1="860" y1="212" x2="860" y2="320" stroke="#111827" stroke-width="2"/>
<polygon points="860,320 855.0,311.33974596215563 865.0,311.33974596215563" fill="#111827"/>
<line x1="860" y1="320" x2="980" y2="320" stroke="#111827" stroke-width="2"/>
<polygon points="980,320 971.3397459621556,325.0 971.3397459621556,315.0" fill="#111827"/>
<line x1="610" y1="392" x2="610" y2="212" stroke="#111827" stroke-width="2"/>
<polygon points="610,212 615.0,220.6602540378444 605.0,220.6602540378444" fill="#111827"/>
<line x1="610" y1="392" x2="610" y2="500" stroke="#111827" stroke-width="2"/>
<polygon points="610,500 605.0,491.33974596215563 615.0,491.33974596215563" fill="#111827"/>
<line x1="700" y1="392" x2="700" y2="500" stroke="#111827" stroke-width="2"/>
<polygon points="700,500 695.0,491.33974596215563 705.0,491.33974596215563" fill="#111827"/>
<line x1="700" y1="500" x2="760" y2="500" stroke="#111827" stroke-width="2"/>
<polygon points="760,500 751.3397459621556,505.0 751.3397459621556,495.0" fill="#111827"/>
<rect class="pill" x="40" y="600" width="1120" height="88" rx="18" ry="18"/>
<text class="h2" x="60" y="632" text-anchor="start">Key API calls:</text>
<text class="text" x="60" y="660" text-anchor="start">POST /auth/register, POST /auth/login, GET /habits, POST /habits, PUT /habits/{id}, PUT /logs/{date}, GET /calendar?month=YYYY-MM, GET /stats?range=30d</text>
</svg>
