<?xml version="1.0" encoding="UTF-8"?>
<svg xmlns="http://www.w3.org/2000/svg" width="390" height="844" viewBox="0 0 390 844">
  <defs>
    <style>
      .bg { fill:#ffffff; }
      .frame { fill:none; stroke:#111827; stroke-width:2; rx:24; ry:24; }
      .muted { fill:#6b7280; font-family: Inter, Arial, sans-serif; font-size:14px; }
      .h1 { fill:#111827; font-family: Inter, Arial, sans-serif; font-size:22px; font-weight:700; }
      .h2 { fill:#111827; font-family: Inter, Arial, sans-serif; font-size:16px; font-weight:700; }
      .text { fill:#111827; font-family: Inter, Arial, sans-serif; font-size:14px; }
      .pill { fill:#f3f4f6; stroke:#d1d5db; stroke-width:1; }
      .card { fill:#ffffff; stroke:#e5e7eb; stroke-width:2; }
      .btn { fill:#111827; }
      .btnText { fill:#ffffff; font-family: Inter, Arial, sans-serif; font-size:14px; font-weight:700; }
      .chipText { fill:#111827; font-family: Inter, Arial, sans-serif; font-size:12px; font-weight:600; }
      .icon { fill:#111827; }
      .divider { stroke:#e5e7eb; stroke-width:2; }
      .accent { fill:#111827; }
      .outline { fill:none; stroke:#111827; stroke-width:2; }
    </style>
  </defs>
  <rect class="bg" x="0" y="0" width="390" height="844"/>
<rect class="frame" x="14" y="14" width="362" height="816" rx="34" ry="34"/>
<text class="muted" x="34" y="36" text-anchor="start">9:41</text>
<text class="muted" x="316" y="36" text-anchor="end">●●●</text>
<text class="h1" x="32" y="84" text-anchor="start">Calendar</text>
<text class="muted" x="32" y="106" text-anchor="start">Tap a day to see logs.</text>
<rect class="card" x="32" y="134" width="326" height="52" rx="16" ry="16"/>
<text class="h2" x="48" y="166" text-anchor="start">December 2025</text>
<text class="muted" x="342" y="166" text-anchor="end">‹  ›</text>
<text class="muted" x="55.285714285714285" y="196" text-anchor="middle">M</text>
<text class="muted" x="101.85714285714286" y="196" text-anchor="middle">T</text>
<text class="muted" x="148.42857142857142" y="196" text-anchor="middle">W</text>
<text class="muted" x="195.0" y="196" text-anchor="middle">T</text>
<text class="muted" x="241.57142857142856" y="196" text-anchor="middle">F</text>
<text class="muted" x="288.1428571428571" y="196" text-anchor="middle">S</text>
<text class="muted" x="334.7142857142857" y="196" text-anchor="middle">S</text>
<rect class="card" x="36.0" y="208" width="38.57142857142857" height="52" rx="14" ry="14"/>
<text class="text" x="55.285714285714285" y="232" text-anchor="middle">1</text>
<circle class="outline" cx="55.285714285714285" cy="248" r="10"/>
<rect class="card" x="82.57142857142857" y="208" width="38.57142857142857" height="52" rx="14" ry="14"/>
<text class="text" x="101.85714285714286" y="232" text-anchor="middle">2</text>
<circle cx="101.85714285714286" cy="248" r="10" fill="#111827" stroke="#111827" stroke-width="2"/>
<text class="btnText" x="101.85714285714286" y="252" text-anchor="middle">✓</text>
<rect class="card" x="129.14285714285714" y="208" width="38.57142857142857" height="52" rx="14" ry="14"/>
<text class="text" x="148.42857142857142" y="232" text-anchor="middle">3</text>
<circle cx="148.42857142857142" cy="248" r="10" fill="#111827" stroke="#111827" stroke-width="2"/>
<text class="btnText" x="148.42857142857142" y="252" text-anchor="middle">✓</text>
<rect class="card" x="175.71428571428572" y="208" width="38.57142857142857" height="52" rx="14" ry="14"/>
<text class="text" x="195.0" y="232" text-anchor="middle">4</text>
<circle class="outline" cx="195.0" cy="248" r="10"/>
<rect class="card" x="222.28571428571428" y="208" width="38.57142857142857" height="52" rx="14" ry="14"/>
<text class="text" x="241.57142857142856" y="232" text-anchor="middle">5</text>
<circle cx="241.57142857142856" cy="248" r="10" fill="#111827" stroke="#111827" stroke-width="2"/>
<text class="btnText" x="241.57142857142856" y="252" text-anchor="middle">✓</text>
<rect class="card" x="268.85714285714283" y="208" width="38.57142857142857" height="52" rx="14" ry="14"/>
<text class="text" x="288.1428571428571" y="232" text-anchor="middle">6</text>
<circle cx="288.1428571428571" cy="248" r="10" fill="#111827" stroke="#111827" stroke-width="2"/>
<text class="btnText" x="288.1428571428571" y="252" text-anchor="middle">✓</text>
<rect class="card" x="315.42857142857144" y="208" width="38.57142857142857" height="52" rx="14" ry="14"/>
<text class="text" x="334.7142857142857" y="232" text-anchor="middle">7</text>
<circle cx="334.7142857142857" cy="248" r="10" fill="#111827" stroke="#111827" stroke-width="2"/>
<text class="btnText" x="334.7142857142857" y="252" text-anchor="middle">✓</text>
<rect class="card" x="36.0" y="268" width="38.57142857142857" height="52" rx="14" ry="14"/>
<text class="text" x="55.285714285714285" y="292" text-anchor="middle">8</text>
<circle class="outline" cx="55.285714285714285" cy="308" r="10"/>
<rect class="card" x="82.57142857142857" y="268" width="38.57142857142857" height="52" rx="14" ry="14"/>
<text class="text" x="101.85714285714286" y="292" text-anchor="middle">9</text>
<circle cx="101.85714285714286" cy="308" r="10" fill="#111827" stroke="#111827" stroke-width="2"/>
<text class="btnText" x="101.85714285714286" y="312" text-anchor="middle">✓</text>
<rect class="card" x="129.14285714285714" y="268" width="38.57142857142857" height="52" rx="14" ry="14"/>
<text class="text" x="148.42857142857142" y="292" text-anchor="middle">10</text>
<circle cx="148.42857142857142" cy="308" r="10" fill="#111827" stroke="#111827" stroke-width="2"/>
<text class="btnText" x="148.42857142857142" y="312" text-anchor="middle">✓</text>
<rect class="card" x="175.71428571428572" y="268" width="38.57142857142857" height="52" rx="14" ry="14"/>
<text class="text" x="195.0" y="292" text-anchor="middle">11</text>
<circle class="outline" cx="195.0" cy="308" r="10"/>
<rect class="card" x="222.28571428571428" y="268" width="38.57142857142857" height="52" rx="14" ry="14"/>
<text class="text" x="241.57142857142856" y="292" text-anchor="middle">12</text>
<circle cx="241.57142857142856" cy="308" r="10" fill="#111827" stroke="#111827" stroke-width="2"/>
<text class="btnText" x="241.57142857142856" y="312" text-anchor="middle">✓</text>
<rect class="card" x="268.85714285714283" y="268" width="38.57142857142857" height="52" rx="14" ry="14"/>
<text class="text" x="288.1428571428571" y="292" text-anchor="middle">13</text>
<circle class="outline" cx="288.1428571428571" cy="308" r="10"/>
<rect class="card" x="315.42857142857144" y="268" width="38.57142857142857" height="52" rx="14" ry="14"/>
<text class="text" x="334.7142857142857" y="292" text-anchor="middle">14</text>
<circle cx="334.7142857142857" cy="308" r="10" fill="#111827" stroke="#111827" stroke-width="2"/>
<text class="btnText" x="334.7142857142857" y="312" text-anchor="middle">✓</text>
<rect class="card" x="36.0" y="328" width="38.57142857142857" height="52" rx="14" ry="14"/>
<text class="text" x="55.285714285714285" y="352" text-anchor="middle">15</text>
<circle class="outline" cx="55.285714285714285" cy="368" r="10"/>
<rect class="card" x="82.57142857142857" y="328" width="38.57142857142857" height="52" rx="14" ry="14"/>
<text class="text" x="101.85714285714286" y="352" text-anchor="middle">16</text>
<circle cx="101.85714285714286" cy="368" r="10" fill="#111827" stroke="#111827" stroke-width="2"/>
<text class="btnText" x="101.85714285714286" y="372" text-anchor="middle">✓</text>
<rect class="card" x="129.14285714285714" y="328" width="38.57142857142857" height="52" rx="14" ry="14"/>
<text class="text" x="148.42857142857142" y="352" text-anchor="middle">17</text>
<circle class="outline" cx="148.42857142857142" cy="368" r="10"/>
<rect class="card" x="175.71428571428572" y="328" width="38.57142857142857" height="52" rx="14" ry="14"/>
<text class="text" x="195.0" y="352" text-anchor="middle">18</text>
<circle cx="195.0" cy="368" r="10" fill="#111827" stroke="#111827" stroke-width="2"/>
<text class="btnText" x="195.0" y="372" text-anchor="middle">✓</text>
<rect class="card" x="222.28571428571428" y="328" width="38.57142857142857" height="52" rx="14" ry="14"/>
<text class="text" x="241.57142857142856" y="352" text-anchor="middle">19</text>
<circle class="outline" cx="241.57142857142856" cy="368" r="10"/>
<rect class="card" x="268.85714285714283" y="328" width="38.57142857142857" height="52" rx="14" ry="14"/>
<text class="text" x="288.1428571428571" y="352" text-anchor="middle">20</text>
<circle cx="288.1428571428571" cy="368" r="10" fill="#111827" stroke="#111827" stroke-width="2"/>
<text class="btnText" x="288.1428571428571" y="372" text-anchor="middle">✓</text>
<rect class="card" x="315.42857142857144" y="328" width="38.57142857142857" height="52" rx="14" ry="14"/>
<text class="text" x="334.7142857142857" y="352" text-anchor="middle">21</text>
<circle cx="334.7142857142857" cy="368" r="10" fill="#111827" stroke="#111827" stroke-width="2"/>
<text class="btnText" x="334.7142857142857" y="372" text-anchor="middle">✓</text>
<rect class="card" x="36.0" y="388" width="38.57142857142857" height="52" rx="14" ry="14"/>
<text class="text" x="55.285714285714285" y="412" text-anchor="middle">22</text>
<rect class="card" x="82.57142857142857" y="388" width="38.57142857142857" height="52" rx="14" ry="14"/>
<text class="text" x="101.85714285714286" y="412" text-anchor="middle">23</text>
<rect class="card" x="129.14285714285714" y="388" width="38.57142857142857" height="52" rx="14" ry="14"/>
<text class="text" x="148.42857142857142" y="412" text-anchor="middle">24</text>
<rect class="card" x="175.71428571428572" y="388" width="38.57142857142857" height="52" rx="14" ry="14"/>
<text class="text" x="195.0" y="412" text-anchor="middle">25</text>
<rect class="card" x="222.28571428571428" y="388" width="38.57142857142857" height="52" rx="14" ry="14"/>
<text class="text" x="241.57142857142856" y="412" text-anchor="middle">26</text>
<rect class="card" x="268.85714285714283" y="388" width="38.57142857142857" height="52" rx="14" ry="14"/>
<text class="text" x="288.1428571428571" y="412" text-anchor="middle">27</text>
<rect class="card" x="315.42857142857144" y="388" width="38.57142857142857" height="52" rx="14" ry="14"/>
<text class="text" x="334.7142857142857" y="412" text-anchor="middle">28</text>
<rect class="card" x="36.0" y="448" width="38.57142857142857" height="52" rx="14" ry="14"/>
<text class="text" x="55.285714285714285" y="472" text-anchor="middle">29</text>
<rect class="card" x="82.57142857142857" y="448" width="38.57142857142857" height="52" rx="14" ry="14"/>
<text class="text" x="101.85714285714286" y="472" text-anchor="middle">30</text>
<rect class="card" x="129.14285714285714" y="448" width="38.57142857142857" height="52" rx="14" ry="14"/>
<text class="text" x="148.42857142857142" y="472" text-anchor="middle">31</text>
<rect class="card" x="32" y="520" width="326" height="220" rx="22" ry="22"/>
<text class="h2" x="48" y="554" text-anchor="start">Sun, Dec 21</text>
<text class="muted" x="48" y="578" text-anchor="start">4 habits • 2 completed</text>
<line class="divider" x1="48" y1="602" x2="342" y2="602"/>
<text class="text" x="58" y="628" text-anchor="start">✓</text>
<text class="text" x="84" y="628" text-anchor="start">Drink water</text>
<line class="divider" x1="48" y1="646" x2="342" y2="646"/>
<text class="text" x="58" y="672" text-anchor="start">✓</text>
<text class="text" x="84" y="672" text-anchor="start">Read 20 minutes</text>
<line class="divider" x1="48" y1="690" x2="342" y2="690"/>
<text class="text" x="58" y="716" text-anchor="start">○</text>
<text class="text" x="84" y="716" text-anchor="start">Workout</text>
<line class="divider" x1="48" y1="734" x2="342" y2="734"/>
<text class="text" x="58" y="760" text-anchor="start">○</text>
<text class="text" x="84" y="760" text-anchor="start">Meditate</text>
<line class="divider" x1="14" y1="756" x2="376" y2="756"/>
<text class="muted" x="59.25" y="786" text-anchor="middle">Today</text>
<text class="h2" x="149.75" y="786" text-anchor="middle">Calendar</text>
<text class="muted" x="240.25" y="786" text-anchor="middle">Stats</text>
<text class="muted" x="330.75" y="786" text-anchor="middle">Profile</text>
</svg>
