<?xml version="1.0" encoding="UTF-8"?>
<svg xmlns="http://www.w3.org/2000/svg" width="390" height="844" viewBox="0 0 390 844">
  <defs>
    <style>
      .bg { fill:#ffffff; }
      .frame { fill:none; stroke:#111827; stroke-width:2; rx:24; ry:24; }
      .muted { fill:#6b7280; font-family: Inter, Arial, sans-serif; font-size:14px; }
      .h1 { fill:#111827; font-family: Inter, Arial, sans-serif; font-size:22px; font-weight:700; }
      .h2 { fill:#111827; font-family: Inter, Arial, sans-serif; font-size:16px; font-weight:700; }
      .text { fill:#111827; font-family: Inter, Arial, sans-serif; font-size:14px; }
      .pill { fill:#f3f4f6; stroke:#d1d5db; stroke-width:1; }
      .card { fill:#ffffff; stroke:#e5e7eb; stroke-width:2; }
      .btn { fill:#111827; }
      .btnText { fill:#ffffff; font-family: Inter, Arial, sans-serif; font-size:14px; font-weight:700; }
      .chipText { fill:#111827; font-family: Inter, Arial, sans-serif; font-size:12px; font-weight:600; }
      .icon { fill:#111827; }
      .divider { stroke:#e5e7eb; stroke-width:2; }
      .accent { fill:#111827; }
      .outline { fill:none; stroke:#111827; stroke-width:2; }
    </style>
  </defs>
  <rect class="bg" x="0" y="0" width="390" height="844"/>
<rect class="frame" x="14" y="14" width="362" height="816" rx="34" ry="34"/>
<text class="muted" x="34" y="36" text-anchor="start">9:41</text>
<text class="muted" x="316" y="36" text-anchor="end">●●●</text>
<text class="h1" x="32" y="84" text-anchor="start">Stats</text>
<text class="muted" x="32" y="106" text-anchor="start">Your momentum this week.</text>
<rect class="card" x="32" y="134" width="157.0" height="96" rx="18" ry="18"/>
<text class="muted" x="48" y="168" text-anchor="start">Current streak</text>
<text class="h1" x="48" y="200" text-anchor="start">12 days</text>
<rect class="card" x="201.0" y="134" width="157.0" height="96" rx="18" ry="18"/>
<text class="muted" x="217.0" y="168" text-anchor="start">Completion</text>
<text class="h1" x="217.0" y="200" text-anchor="start">5 / 7</text>
<rect class="card" x="32" y="250" width="326" height="220" rx="18" ry="18"/>
<text class="h2" x="48" y="284" text-anchor="start">Weekly overview</text>
<rect class="pill" x="48.0" y="362.0" width="32.0" height="78.0" rx="10" ry="10"/>
<text class="muted" x="64.0" y="464" text-anchor="middle">M</text>
<rect class="pill" x="90.0" y="336.0" width="32.0" height="104.0" rx="10" ry="10"/>
<text class="muted" x="106.0" y="464" text-anchor="middle">T</text>
<rect class="pill" x="132.0" y="388.0" width="32.0" height="52.0" rx="10" ry="10"/>
<text class="muted" x="148.0" y="464" text-anchor="middle">W</text>
<rect class="pill" x="174.0" y="310.0" width="32.0" height="130.0" rx="10" ry="10"/>
<text class="muted" x="190.0" y="464" text-anchor="middle">T</text>
<rect class="pill" x="216.0" y="349.0" width="32.0" height="91.0" rx="10" ry="10"/>
<text class="muted" x="232.0" y="464" text-anchor="middle">F</text>
<rect class="pill" x="258.0" y="401.0" width="32.0" height="39.0" rx="10" ry="10"/>
<text class="muted" x="274.0" y="464" text-anchor="middle">S</text>
<rect class="pill" x="300.0" y="323.0" width="32.0" height="117.0" rx="10" ry="10"/>
<text class="muted" x="316.0" y="464" text-anchor="middle">S</text>
<rect class="card" x="32" y="490" width="326" height="120" rx="18" ry="18"/>
<text class="h2" x="48" y="524" text-anchor="start">Top habits</text>
<text class="text" x="48" y="552" text-anchor="start">Read 20 minutes — 86% (last 30 days)</text>
<text class="text" x="48" y="580" text-anchor="start">Meditate — 71% (last 30 days)</text>
<line class="divider" x1="14" y1="756" x2="376" y2="756"/>
<text class="muted" x="59.25" y="786" text-anchor="middle">Today</text>
<text class="muted" x="149.75" y="786" text-anchor="middle">Calendar</text>
<text class="h2" x="240.25" y="786" text-anchor="middle">Stats</text>
<text class="muted" x="330.75" y="786" text-anchor="middle">Profile</text>
</svg>
